<svg>
    <defs>
    <filter id="borde-difuminat-gran">
        <feGaussianBlur in="SourceGraphic" stdDeviation="3" />
    </filter>
    <filter id="borde-difuminat-petit">
        <feGaussianBlur in="SourceGraphic" stdDeviation="2" />
    </filter>
    </defs>

    <!--CERCLE FONS LOGO-->  
    <circle 
        r="75" 
        cx="75" cy="75" 
        fill="#b3d3f0" 
    />
   
    <!--CERCLE BASE I VOLUM GLOBUS-->
    <circle 
        r="30" 
        cx="87" cy="54" 
        fill="#5f5f5f"
    />

    <path d="M72.3,80.1 A27.3,29.7 0 1,1 84,83.7" 
        fill="#737373" 
        filter="url(#borde-difuminat-gran)"
    />

    <path d="M120.5,133.5 A39,49.5 0 1,1 140,139.5" 
        fill="#8b8b8b" 
        filter="url(#borde-difuminat-gran)"
    />
    <circle 
        r="57" 
        cx="145" cy="90" 
        fill="none"
        stroke="#b3d3f0" 
        stroke-width="15"
    />

    <!--CERCLE BRILLANT GLOBUS-->
    <circle 
        r="16.5" 
        cx="130" cy="85" 
        fill="#cecaca" 
        filter="url(#borde-difuminat-petit)"
    />
    <circle 
        r="9" 
        cx="130" cy="85" 
        fill="#dcdcdc" 
        filter="url(#borde-difuminat-petit)"
    />

    <!--BASE-->
    <path 
        class="plataforma"
        d="M 170 132.5
           A 50 50, 0, 0, 1, 132.5 137.5
           L 142.5,145 166,140 Z" 
        fill="#696969"
    />

    <!--PLATAFORMA-->
    <polygon
        class="plataforma"
        points="37.5,157.5 210,157.5 210,165 170,200 77.5,200 37.5,165"
        fill="#d98b8b" />
    
    <polygon points="37.5,157.5 62.5,157.5 62.5,165 37.5,165" fill="#b96052" />
    <polygon points="62.5,157.5 185,157.5 185,165 62.5,165" fill="#aa4f42"/>
    <polygon points="185,157.5 210,157.5 210,165 185,165" fill="#994538" />
    
    <polygon points="69,192.5 94.5,192.5 94.5,200 77.5,200" fill="#b96052" />
    <polygon points="94.5,192.5 153,192.5 153,200 94.5,200" fill="#aa4f42" />
    <polygon points="152.5,192.5 178.5,192.5 170,200 152.5,200" fill="#994538" />

    <polygon points="37.5,165 185,165 152.5,192.5 80,192.5" fill="#d98b8b" />
    <polygon points="69,192.5 94.5,192.5 62.5,165 37.5,165" fill="#e69a9a" />
    <polygon points="152.5,192.5 185,165 210,165 178.5,192.5" fill="#b36b6b" />
    
    <!--TEXT-->
    <path id="circlePath" d="M15,75 A60,60 0 1,1 135,75" fill="transparent" />
    <text
        class="plataforma"
        style="font-family: Open Sans, sans-serif;
                font-size: 9;
                fill: #aa4f42;">
        <textPath href="#circlePath">
         ATERRATGE AFORTUNAT
        </textPath>
    </text>
</svg>