<svg viewBox= "0 0 500 500">
    <defs>
    <filter id="borde-difuminat">
        <feGaussianBlur in="SourceGraphic" stdDeviation="6" />
    </filter>
    </defs>

    <!--RECTANGLE PER VEURE AREA DEL LOGO
    <rect 
        width="500" height="500" 
        fill="#ffffff"
    />-->
    <!--CERCLE FONS LOGO-->
        
    <circle 
        r="249" 
        cx="250" cy="250" 
        fill="#b3d3f0" 
    />
   
    <!--CERCLE BASE I VOLUM GLOBUS-->
    <circle 
        r="100" 
        cx="290" cy="180" 
        fill="#5f5f5f"
    />

    <path d="M241,267 A91,99 0 1,1 280,279" 
        fill="#737373" 
        filter="url(#borde-difuminat)"
    />

    <path d="M241,267 A78,99 0 1,1 280,279" 
        fill="#8b8b8b" 
        filter="url(#borde-difuminat)"
    />
    <circle 
        r="108" 
        cx="290" cy="180" 
        fill="none"
        stroke="#b3d3f0" 
        stroke-width="15"
    />

    <!--CERCLE BRILLANT GLOBUS-->
    <circle 
        r="33" 
        cx="260" cy="170" 
        fill="#cecaca" 
        filter="url(#borde-difuminat)"
    />
    <circle 
        r="18" 
        cx="260" cy="170" 
        fill="#dcdcdc" 
        filter="url(#borde-difuminat)"
    />

    <!--BASE-->
    <path d="M 342 265
           A 100 100, 0, 0, 1, 265 277
           L 285,290 332,280 Z" fill="#696969"
    />

    <!--PLATAFORMA-->
    <polygon points="75,315 370,315 370,330 357,385 155,385 75,330" fill="#d98b8b" />
    <polygon points="75,315 125,315 125,330 75,330" fill="#b96052" />
    <polygon points="125,315 370,315 370,330 125,330" fill="#aa4f42"/>
    <polygon points="370,315 420,315 420,330 370,330" fill="#994538" />
    <!--<polygon points="75,315 420,315 420,320  75,320" fill="#7a2d26" />-->
    <polygon points="138,385 190,385 190,400 155,400" fill="#b96052" />
    <polygon points="189,385 306,385 306,400 189,400" fill="#aa4f42" />
    <polygon points="305,385 357,385 340,400 305,400" fill="#994538" />
    <polygon points="305,385 370,330 420,330 357,385" fill="#b36b6b" />
    <polygon points="75,330 370,330 305,385 190,385" fill="#d98b8b" />
    <polygon points="138,385 190,385 125,330 75,330" fill="#e69a9a" />
    
    <!--TEXT-->
    <path id="circlePath" d="M50,250 A200,200 0 1,1 450,250" fill="transparent" />
    <text
        style="font-family: Open Sans, sans-serif;
                font-size: 30;
                fill: #aa4f42;">
        <textPath href="#circlePath">
         ATERRATGE AFORTUNAT
        </textPath>
    </text>
</svg>