<svg>
    <defs>
    <filter id="borde-difuminat-gran">
        <feGaussianBlur in="SourceGraphic" stdDeviation="3" />
    </filter>
    <filter id="borde-difuminat-petit">
        <feGaussianBlur in="SourceGraphic" stdDeviation="1.2" />
    </filter>
    </defs>

    <!--CERCLE FONS LOGO-->  
    <circle 
        r="75" 
        cx="75" cy="75" 
        fill="#b3d3f0" 
    />
   
    <!--CERCLE BASE I VOLUM GLOBUS-->
    <circle 
        r="30" 
        cx="87" cy="54" 
        fill="#5f5f5f"
    />

    <path d="M72.3,80.1 A27.3,29.7 0 1,1 84,83.7" 
        fill="#737373" 
        filter="url(#borde-difuminat-gran)"
    />

    <path d="M72.3,80.1 A23.4,29.7 0 1,1 84,83.7" 
        fill="#8b8b8b" 
        filter="url(#borde-difuminat-gran)"
    />
    <circle 
        r="34.2" 
        cx="87" cy="54" 
        fill="none"
        stroke="#b3d3f0" 
        stroke-width="9"
    />

    <!--CERCLE BRILLANT GLOBUS-->
    <circle 
        r="9.9" 
        cx="78" cy="51" 
        fill="#cecaca" 
        filter="url(#borde-difuminat-petit)"
    />
    <circle 
        r="5.4" 
        cx="78" cy="51" 
        fill="#dcdcdc" 
        filter="url(#borde-difuminat-petit)"
    />

    <!--BASE-->
    <path 
        class="plataforma"
        d="M 102 79.5
           A 30 30, 0, 0, 1, 79.5 82.5
           L 85.5,87 99.6,84 Z" 
        fill="#696969"
    />

    <!--PLATAFORMA-->
    <polygon
        class="plataforma"
        points="22.5,94.5 126,94.5 126,99 102,120 46.5,120 22.5,99"
        fill="#d98b8b" />
    
    <polygon points="22.5,94.5 37.5,94.5 37.5,99 22.5,99" fill="#b96052" />
    <polygon points="37.5,94.5 111,94.5 111,99 37.5,99" fill="#aa4f42"/>
    <polygon points="111,94.5 126,94.5 126,99 111,99" fill="#994538" />
    
    <polygon points="69,192.5 94.5,192.5 94.5,200 77.5,200" fill="#b96052" />
    <polygon points="94.5,192.5 153,192.5 153,200 94.5,200" fill="#aa4f42" />
    <polygon points="152.5,192.5 178.5,192.5 170,200 152.5,200" fill="#994538" />

    <polygon points="37.5,165 185,165 152.5,192.5 80,192.5" fill="#d98b8b" />
    <polygon points="69,192.5 94.5,192.5 62.5,165 37.5,165" fill="#e69a9a" />
    <polygon points="152.5,192.5 185,165 210,165 178.5,192.5" fill="#b36b6b" />
    
    <!--TEXT-->
    <path id="circlePath" d="M15,75 A60,60 0 1,1 135,75" fill="transparent" />
    <text
        class="plataforma"
        style="font-family: Valo;
                font-size: 10;
                fill: #aa4f42;">
        <textPath href="#circlePath">
         ATERRATGE AFORTUNAT
        </textPath>
    </text>
</svg>