<svg>
    <defs>
    <filter id="borde-difuminat-gran">
        <feGaussianBlur in="SourceGraphic" stdDeviation="3" />
    </filter>
    <filter id="borde-difuminat-petit">
        <feGaussianBlur in="SourceGraphic" stdDeviation="1.2" />
    </filter>
    </defs>

    <!--CERCLE FONS LOGO-->  
    <circle 
        r="75" 
        cx="75" cy="75" 
        fill="#b3d3f0" 
    />
   
    <!--CERCLE BASE I VOLUM GLOBUS-->
    <circle 
        r="30" 
        cx="92" cy="54" 
        fill="#5f5f5f"
    />

    <path d="M77.3,80.1 A27.3,29.7 0 1,1 89,83.7" 
        fill="#737373" 
        filter="url(#borde-difuminat-gran)"
    />

    <path d="M77.3,80.1 A23.4,29.7 0 1,1 89,83.7" 
        fill="#8b8b8b" 
        filter="url(#borde-difuminat-gran)"
    />
    <circle 
        r="34.2" 
        cx="92" cy="54" 
        fill="none"
        stroke="#b3d3f0" 
        stroke-width="9"
    />

    <!--CERCLE BRILLANT GLOBUS-->
    <circle 
        r="9.9" 
        cx="83" cy="51" 
        fill="#cecaca" 
        filter="url(#borde-difuminat-petit)"
    />
    <circle 
        r="5.4" 
        cx="83" cy="51" 
        fill="#dcdcdc" 
        filter="url(#borde-difuminat-petit)"
    />

    <!--BASE-->
    <path 
        class="plataforma"
        d="M 107,79.5
           A 30 30, 0, 0, 1, 84.5,82.5
           L 90.5,87 104.6,84 Z" 
        fill="#696969"
    />

    <!--PLATAFORMA-->
    <polygon
        points="22.5,94.5 126,94.5 126,99 102,120 46.5,120 22.5,99"
        fill="#d98b8b"
    />
    
    <polygon points="22.5,94.5 37.5,94.5 37.5,99 22.5,99" fill="#b96052"/>
    <polygon points="37.5,94.5 111,94.5 111,99 37.5,99" fill="#aa4f42"/>
    <polygon points="111,94.5 126,94.5 126,99 111,99" fill="#994538"/>
    
    <polygon points="41.4,115.5 56.7,115.5 56.7,120 46.5,120" fill="#b96052"/>
    <polygon points="56.7,115.5 91.8,115.5 91.8,120 56.7,120" fill="#aa4f42"/>
    <polygon points="91.5,115.5 107.1,115.5 102,120 91.5,120" fill="#994538"/>

    <polygon points="22.5,99 111,99 91.5,115.5 48,115.5" fill="#d98b8b"/>
    <polygon points="41.4,115.5 56.7,115.5 37.5,99 22.5,99" fill="#e69a9a"/>
    <polygon points="91.5,115.5 111,99 126,99 107.1,115.5" fill="#b36b6b"/>

    <!--FITXER-->
    <path 
        d="M45,60 
           L50,67.5
           V85
           H30
           V60
           H45.4" 
        
        stroke="#7a7a7a"
        fill="#dfdfdf"
    />
    <path 
        d="M33,65 40,65" 
        stroke="#7a7a7a"
    />
    <path 
        d="M33,69 45,69" 
        stroke="#7a7a7a"
    />
    <path 
        d="M33,73 42,73" 
        stroke="#7a7a7a"
    />
    <path 
        d="M33,77 37.5,77" 
        stroke="#7a7a7a"
    />
    <path 
        d="M33,81 46,81" 
        stroke="#7a7a7a"
    />

    <!--TEXT ATERRATGE AFORTUNAT-->
    <path id="circlePath1" d="M15,75 A60,60 0 1,1 135,75" fill="transparent" />
    <text
        style="font-family: Valo;
                font-size: 9.5;
                fill: #aa4f42;">
        <textPath href="#circlePath1">
         ATERRATGE AFORTUNAT
        </textPath>
    </text>

    <!--TEXT FLY DODGING-->
    <path id="circlePath2" d="M135,75 A60,60 0 1,1 15,75" fill="transparent" />
    <text
        class="plataforma"
        style="font-family: Valo;
                font-size: 9.5;
                fill: #aa4f42;">
        <textPath href="#circlePath2">
         FLY DODGING
        </textPath>
    </text>
</svg>